<svg width="146" height="146" viewBox="0 0 146 146" fill="none" xmlns="http://www.w3.org/2000/svg">
    <path d="M91.3956 91.3952L100.468 82.3228L142.247 124.093C147.251 129.097 147.251 137.234 142.247 142.238C137.229 147.256 129.115 147.251 124.102 142.238L82.3229 100.468L91.3956 91.3952Z" fill="#FFDA2D" />
    <path d="M124.102 142.238L82.3232 100.468L91.3956 91.3955L142.247 142.238C137.229 147.256 129.115 147.251 124.102 142.238Z" fill="#FF9100" />
    <path d="M55.6067 111.185C24.9117 111.185 0.0285034 86.3015 0.0285034 55.6065C0.0285034 24.9115 24.9117 0.0283203 55.6067 0.0283203C86.3017 0.0283203 111.185 24.9115 111.185 55.6065C111.185 86.3015 86.3017 111.185 55.6067 111.185Z" fill="#596C76" />
    <path d="M16.307 94.906C-5.44243 73.1566 -5.42931 38.0429 16.307 16.3066L94.9064 94.906C73.157 116.655 38.0433 116.642 16.307 94.906Z" fill="#465A61" />
    <path d="M55.6067 102.634C29.6337 102.634 8.57849 81.5793 8.57849 55.6063C8.57849 29.6334 29.6337 8.57812 55.6067 8.57812C81.5796 8.57812 102.635 29.6334 102.635 55.6063C102.635 81.5793 81.5796 102.634 55.6067 102.634Z" fill="#F2F2F2" />
    <path d="M22.3528 88.8603C3.9613 70.4689 3.9499 40.7554 22.3528 22.3525L88.8606 88.8603C70.4691 107.252 40.7557 107.263 22.3528 88.8603Z" fill="#DAEDFF" />
    <path d="M34.2203 76.9928H47.0521L55.6067 71.2094V51.3291H34.2203C31.8581 51.3291 29.943 53.2442 29.943 55.6064V72.7155C29.943 75.0777 31.8581 76.9928 34.2203 76.9928Z" fill="#FDBF00" />
    <path d="M76.9931 42.7749C79.3553 42.7749 81.2704 44.69 81.2704 47.0522V72.7159C81.2704 75.0781 79.3553 76.9932 76.9931 76.9932H64.1613L55.6067 71.0289V55.6068V42.7749H76.9931Z" fill="#1FCEFC" />
    <path d="M55.6067 71.0286V55.6064L76.9931 76.9929H64.1613L55.6067 71.0286Z" fill="#4B97F7" />
    <path d="M51.3294 25.6655H59.884C62.2462 25.6655 64.1613 27.5806 64.1613 29.9428V64.1611V76.9929H47.0521V47.052V29.9428C47.0521 27.5806 48.9672 25.6655 51.3294 25.6655Z" fill="#FE810D" />
    <path d="M47.0521 76.9928V47.0518L64.1613 64.1609V76.9928H47.0521Z" fill="#FF495A" />
</svg>
